<svg width="24" height="24" viewBox="0 0 24 24" fill="none" xmlns="http://www.w3.org/2000/svg">
<path d="M5.30799 18.692C4.89734 18.2814 4.89734 17.6156 5.30799 17.2049L17.2049 5.30799C17.6155 4.89734 18.2813 4.89734 18.692 5.30799C19.1026 5.71865 19.1026 6.38445 18.692 6.7951L6.7951 18.692C6.38445 19.1027 5.71865 19.1027 5.30799 18.692Z" fill="white"/>
<path d="M18.692 18.692C18.2814 19.1027 17.6156 19.1027 17.2049 18.692L5.308 6.79511C4.89735 6.38445 4.89735 5.71865 5.308 5.30799C5.71866 4.89734 6.38446 4.89734 6.79512 5.30799L18.692 17.2049C19.1027 17.6156 19.1027 18.2814 18.692 18.692Z" fill="white"/>
</svg>
