<svg width="243" height="32" viewBox="0 0 243 32" fill="none" xmlns="http://www.w3.org/2000/svg">
<path d="M46.7364 15.2614C43.6392 12.6953 41.0564 10.9685 39.0402 10.1169C39.245 9.00524 39.3325 8.44474 39.3995 8.01645C39.4814 7.48885 39.536 7.14063 39.7365 6.19839L39.8457 5.68941C40.0616 4.69628 40.2317 3.91233 40.3142 2.76898C40.3632 2.09427 40.3707 1.41336 40.3403 0.736783H46.7364V15.2614ZM46.7364 16.5468C45.7658 15.6549 44.7456 14.7803 43.6994 13.9461C42.0933 12.6662 40.5351 11.5197 39.1029 10.5198C41.1048 11.4049 43.6652 13.1447 46.7364 15.7089V16.5468ZM46.7364 17.8174C45.6783 16.7684 44.5737 15.7368 43.44 14.7468C42.578 13.9945 42.12 13.632 41.4871 13.1298C41.0645 12.7953 40.5637 12.398 39.8097 11.7798C39.4857 11.5148 39.1755 11.2603 38.872 11.0107C38.8807 10.9667 38.8881 10.9288 38.8968 10.8835C38.9018 10.8562 38.9061 10.832 38.9117 10.8053C40.3365 11.7997 41.8873 12.9405 43.4853 14.2148C44.5669 15.077 45.6212 15.982 46.6197 16.905L46.7364 16.7784V17.8174ZM46.7364 19.1669C45.9892 18.314 45.2179 17.4705 44.4229 16.6586C42.4682 14.6636 40.599 13.0225 38.7876 11.4502C38.7913 11.4322 38.7951 11.4136 38.7988 11.395C39.0569 11.6072 39.3194 11.8226 39.5919 12.0461C40.3471 12.6656 40.8504 13.064 41.2736 13.3992C41.9028 13.8983 42.3583 14.2589 43.2141 15.0062C44.4291 16.0664 45.6113 17.175 46.7364 18.3016V19.1669ZM46.7364 20.9737C45.8409 19.6429 44.8778 18.345 43.8576 17.1111C42.4601 15.4215 41.1569 14.0801 39.9474 12.9207C41.3189 14.1304 42.7251 15.4165 44.1772 16.8988C45.0596 17.7994 45.916 18.7367 46.7364 19.6851V20.9737ZM46.7364 21.9408C45.6939 20.5846 44.6252 19.2463 43.5473 17.9515C41.734 15.7728 40.2013 13.9306 38.8702 12.3775C40.3036 13.7096 41.878 15.257 43.5926 17.3308C44.7152 18.6877 45.7689 20.1209 46.7364 21.5932V21.9408ZM46.7364 24.1816C45.6212 22.4765 44.4664 20.7602 43.291 19.0688C42.614 18.0943 42.2863 17.6393 41.412 16.4239L39.9729 14.4228C39.621 13.9324 39.289 13.4694 38.9719 13.0256C40.2149 14.4849 41.6329 16.1881 43.283 18.1712C44.4533 19.5765 45.6107 21.0333 46.7364 22.5087V24.1816ZM46.7364 26.5371C44.7791 23.3926 42.8064 20.1898 40.8646 16.9987C39.9791 15.5438 39.191 14.2403 38.4699 13.0274C38.4761 12.9995 38.4823 12.9685 38.4885 12.9399C38.8658 13.4681 39.2654 14.0261 39.6936 14.6226L41.1327 16.6244C42.0065 17.8385 42.3335 18.2929 43.0093 19.2655C44.2833 21.0997 45.535 22.9625 46.7364 24.8097V26.5371ZM46.7364 28.4148C46.0873 27.4589 45.45 26.4949 44.8431 25.5335C42.1635 21.2853 40.0523 17.2507 38.3452 13.6084C38.3514 13.5799 38.3582 13.5501 38.3644 13.5215C39.0346 14.6456 39.7619 15.8479 40.5711 17.1775C42.6103 20.5281 44.683 23.8929 46.7364 27.1876V28.4148ZM46.7364 30.4389C46.0016 29.4166 45.2911 28.3658 44.6221 27.3031C43.4853 25.4968 42.4179 23.5906 41.5355 21.7893C40.4929 19.6628 39.824 17.9527 38.9763 15.7871C38.9285 15.6654 38.885 15.5537 38.8435 15.4457C40.4042 18.643 42.2721 22.1022 44.5526 25.7172C45.2501 26.822 45.9855 27.9337 46.7364 29.0293V30.4389ZM46.7364 31.1645H45.9365C44.987 30.0479 44.112 28.8586 43.3401 27.6135C42.1113 25.6315 41.4498 24.0388 40.6114 22.0209C39.4944 19.3332 38.8664 17.234 38.45 15.8442C38.3365 15.4643 38.2223 15.082 38.1106 14.6996C38.1211 14.6506 38.1311 14.6034 38.141 14.5562C38.2601 14.884 38.419 15.306 38.6561 15.9125C39.5068 18.085 40.1783 19.8012 41.227 21.9414C42.1144 23.7526 43.188 25.6706 44.3311 27.4862C45.0882 28.6891 45.8974 29.8759 46.7364 31.0242V31.1645ZM44.3416 31.1645C43.6423 30.2608 42.9932 29.308 42.4136 28.3248C40.9174 25.7848 40.1932 23.5801 39.5546 21.6348C39.0197 20.0073 38.4674 18.3246 38.1019 16C38.0889 15.9193 38.0765 15.8361 38.064 15.7523C38.0833 15.8156 38.1019 15.8802 38.1211 15.9435C38.5388 17.3395 39.1705 19.4487 40.2943 22.1543C41.1383 24.1853 41.8048 25.7898 43.0484 27.7953C43.7782 28.9716 44.5992 30.0994 45.4872 31.1645H44.3416ZM42.7288 31.1645C42.197 30.3539 41.7067 29.5097 41.2692 28.6438C39.9344 26.0015 39.3821 23.7589 38.8944 21.78C38.4258 19.8776 38.1224 18.6399 37.979 17.2495C38.3321 19.0042 38.7851 20.3952 39.2282 21.7422C39.8724 23.7036 40.6028 25.927 42.1175 28.4992C42.6599 29.4197 43.2631 30.3123 43.9097 31.1645H42.7288ZM41.075 31.1645C40.6797 30.4066 40.3142 29.6245 39.9927 28.8338C39.4982 27.619 38.6014 25.0723 38.1466 21.6658C38.0175 20.7025 37.943 19.8043 37.9015 19.008C38.0678 19.8577 38.2893 20.7584 38.5611 21.862C39.0526 23.8588 39.6099 26.1219 40.9627 28.799C41.3716 29.609 41.8265 30.4011 42.318 31.1645H41.075ZM39.9592 31.1645C39.5323 30.4613 39.155 29.7239 38.8422 28.9654C37.7041 26.2051 37.6346 23.7793 37.5732 21.6391C37.5502 20.8564 37.5583 20.1196 37.5825 19.4443C37.6278 20.1407 37.6979 20.903 37.8059 21.7111C38.2657 25.1554 39.1736 27.7333 39.6744 28.9629C39.9772 29.709 40.3229 30.4457 40.6915 31.1645H39.9592ZM38.5952 31.1645C38.2428 30.4433 37.9393 29.6966 37.6973 28.9349C36.7683 26.0095 36.9011 23.5689 36.9979 21.7862C37.0389 21.0358 37.1158 20.3338 37.2356 19.5293C37.2139 20.1848 37.2077 20.8955 37.2294 21.6497C37.2921 23.8191 37.3622 26.2777 38.5251 29.0969C38.818 29.8077 39.1662 30.4997 39.5583 31.1645H38.5952ZM20.7392 31.1645C27.198 29.1249 31.8944 23.0767 31.8944 15.9503C31.8944 8.82461 27.1974 2.77581 20.7379 0.736783H24.4961C25.322 1.84971 26.2436 2.85836 27.2501 3.72735C27.8831 4.27358 28.1872 4.45979 28.8537 4.86822C29.4345 5.22388 30.3126 5.76204 31.9534 6.87993C32.2047 7.05125 32.4337 7.20829 32.6465 7.35477C33.4396 7.89976 34.0149 8.29329 34.6758 8.66633C35.1809 9.08965 35.7469 9.56946 36.3836 10.1269C36.4078 10.1697 36.4332 10.2138 36.458 10.2566C36.5629 10.4999 36.6734 10.7494 36.7826 10.9971C36.8595 11.2025 36.9346 11.3987 37.0035 11.5744C37.1102 12.223 37.2629 12.8958 37.4422 13.5786C37.4733 13.8604 37.5062 14.1459 37.5403 14.4309C37.5366 14.9349 37.5366 15.3762 37.5465 15.7952C37.5446 15.8045 37.5434 15.8119 37.5415 15.8206C37.0116 18.6604 36.746 20.0861 36.6547 21.7676C36.5561 23.5764 36.4214 26.0536 37.3703 29.0392C37.5999 29.7636 37.8835 30.4755 38.2117 31.1645H20.7392ZM20.1099 29.385C20.9458 28.2267 21.2785 27.0374 21.8345 25.0505C22.3613 23.1686 22.218 23.0289 22.653 22.1748C22.9881 21.5169 23.8283 19.867 25.3506 19.4989C26.0214 19.3369 26.0661 19.6076 27.5176 19.4989C28.3485 19.4369 28.9995 19.3884 29.7287 19.0564C30.0284 18.9204 30.4994 18.6622 30.9927 18.1824C30.0383 24.6452 25.0062 29.794 18.6032 30.9274C19.3243 30.3706 19.8009 29.8139 20.1099 29.385ZM17.8387 31.0429C17.3385 31.1049 16.8296 31.1385 16.3152 31.1521V18.9353C16.4722 19.3022 16.6453 19.5815 16.7937 19.7863C17.117 20.2351 17.7394 20.9166 18.6063 21.4672C19.1456 21.8092 19.6892 22.0445 20.0882 22.7061C20.1993 22.8905 20.2676 23.0556 20.3532 23.3033C20.6709 24.2182 20.8838 25.2635 20.9061 25.7582C20.9632 27.0362 19.9492 29.1925 17.8387 31.0429ZM0.73661 15.9503C0.73661 12.7227 1.75061 9.73022 3.47143 7.26601C5.46529 9.6427 6.60464 11.7084 7.2854 13.2105C7.6658 14.0497 8.1244 15.2005 9.05462 17.0738C9.10303 17.1719 9.21597 17.3985 9.37173 17.7051C8.44771 19.07 7.63292 20.353 6.90562 22.1096C6.25279 23.685 5.8004 25.3429 5.55341 27.0436C2.59085 24.2672 0.73661 20.3226 0.73661 15.9503ZM8.75986 15.5034C7.70676 13.0653 6.30615 10.4769 4.42585 7.90224C4.18507 7.57326 3.94243 7.25484 3.69917 6.94262C3.86673 6.71544 4.04234 6.49447 4.22168 6.27723C4.81432 7.19401 5.40882 8.18528 5.98842 9.25911C7.18735 11.4806 8.08344 13.596 8.75986 15.5034ZM5.06751 5.33189C5.78984 6.47461 6.44578 7.66823 7.01173 8.88917C8.06421 11.1597 8.84053 13.5625 9.32953 16.0391C9.03787 15.3886 8.64816 14.483 8.03752 13.0628C7.04338 10.7525 6.68966 9.84071 5.95864 8.50681C5.38772 7.46526 4.83977 6.62855 4.42585 6.03639C4.63374 5.79556 4.84597 5.55907 5.06751 5.33189ZM15.5792 6.99166C15.4408 7.42057 15.2938 7.84824 15.1299 8.26783C14.757 9.22 14.3766 9.98844 13.8094 10.9859C13.9664 10.5936 14.0868 10.2584 14.1718 9.97168C14.8302 7.75761 15.1845 5.4312 15.1963 3.24382C15.2007 2.42076 15.1585 1.5915 15.0747 0.7703C15.2422 0.760989 15.4098 0.749818 15.5792 0.746094V6.99166ZM15.5792 9.03069C14.9915 9.96175 14.3735 10.891 13.733 11.804C14.5274 10.4521 14.9922 9.56201 15.4495 8.3926C15.4954 8.27653 15.5352 8.15735 15.5792 8.04066V9.03069ZM15.5792 10.1138C14.9655 10.8289 14.3735 11.5743 13.823 12.344C13.4346 12.8878 12.8823 13.7121 12.2604 14.7847C12.3262 14.568 12.3939 14.3471 12.4621 14.1205C12.8326 13.6419 13.2596 13.074 13.7939 12.3223C14.4132 11.4502 15.0058 10.5583 15.5792 9.66505V10.1138ZM14.837 26.989C14.4306 26.2318 14.0595 25.4497 13.7231 24.6539C14.1141 25.3038 14.5261 25.9506 14.9568 26.5781C15.1572 26.8705 15.3682 27.1603 15.5792 27.4496V28.2782C15.3211 27.853 15.0697 27.4241 14.837 26.989ZM13.6995 26.3391C13.4482 25.5633 13.2385 24.7669 13.074 23.9643C13.4947 25.0537 13.9831 26.125 14.5342 27.1516C14.8569 27.7537 15.2106 28.3484 15.5792 28.9287V30.5612C14.8097 29.218 14.1724 27.8034 13.6995 26.3391ZM13.0256 26.0617C12.8425 25.1952 12.7079 24.3113 12.6235 23.4249C12.8041 24.446 13.0541 25.4608 13.3719 26.4447C13.9025 28.084 14.626 29.6661 15.5196 31.1521C15.2267 31.144 14.9369 31.126 14.6484 31.1012L14.6943 31.0801C13.9515 29.4731 13.3905 27.7848 13.0256 26.0617ZM12.1208 24.8482C12.0737 24.0537 12.0886 23.2493 12.1581 22.451C12.1916 22.4988 12.2263 22.5466 12.2604 22.595L12.2145 22.5981C12.284 23.7849 12.4441 24.9742 12.6893 26.1324C13.0479 27.8264 13.5965 29.4849 14.3151 31.0683C14.1097 31.046 13.9056 31.0199 13.702 30.9895C12.7799 29.0237 12.2468 26.9586 12.1208 24.8482ZM11.4078 24.9804C11.4326 23.96 11.5698 22.9395 11.8037 21.9383C11.8198 21.9631 11.8366 21.9874 11.8534 22.0116C11.7472 22.9606 11.7218 23.9215 11.7783 24.8687C11.9018 26.9487 12.4156 28.9846 13.298 30.928C12.9995 30.8753 12.706 30.8113 12.4137 30.7418C11.7026 28.8766 11.3606 26.9406 11.4078 24.9804ZM11.0199 22.5981C11.1217 22.168 11.252 21.7409 11.396 21.3195C11.4432 21.394 11.4928 21.4697 11.5425 21.5454C11.2551 22.6695 11.0919 23.8209 11.064 24.9723C11.0181 26.8984 11.3377 28.8015 12.0073 30.6394C11.7528 30.5711 11.5015 30.4973 11.2527 30.416L11.3414 30.3893C10.5378 27.7128 10.4292 25.0915 11.0199 22.5981ZM10.1102 25.3739C10.1915 24.3895 10.3032 23.8222 10.5266 22.6912C10.6172 22.2319 10.7264 21.6795 10.8598 20.9681C10.8853 20.8316 10.9095 20.7 10.9331 20.5721C11.0051 20.6932 11.0801 20.8167 11.1596 20.9452C10.9722 21.4604 10.8114 21.9886 10.6855 22.5187C10.0934 25.0183 10.1909 27.6426 10.9672 30.3185C10.7078 30.2285 10.4528 30.131 10.2002 30.028C10.0177 28.48 9.98298 26.917 10.1102 25.3739ZM9.35746 25.2039C9.45799 24.3777 9.60754 23.5534 10.6439 20.0793C10.6513 20.0923 10.6588 20.1054 10.6662 20.1184C10.6222 20.3636 10.5744 20.6249 10.5216 20.9048C10.3888 21.6149 10.2802 22.1667 10.1896 22.6242C9.96375 23.7675 9.85018 24.3417 9.76765 25.3454C9.64354 26.8481 9.67332 28.3695 9.83839 29.8778C9.65595 29.7971 9.47598 29.7114 9.29664 29.6239C9.16322 28.1485 9.17998 26.6625 9.35746 25.2039ZM8.8244 24.0258C9.19177 22.3505 9.65285 21.1922 10.1872 19.8503C10.2325 19.7348 10.279 19.6243 10.3255 19.5113C10.3535 19.5622 10.3814 19.6125 10.4093 19.6634C9.27492 23.446 9.12537 24.2672 9.01677 25.1623C8.84425 26.5756 8.82377 28.0126 8.93858 29.4427C8.73069 29.3341 8.52528 29.2211 8.32298 29.1032C8.29319 27.3931 8.46013 25.6868 8.8244 24.0258ZM8.33415 22.8011C8.66739 21.731 8.99629 21.0625 9.718 19.5982L9.82784 19.3754C9.89735 19.2345 9.96188 19.1035 10.0295 18.9664C10.0568 19.0179 10.0848 19.07 10.1133 19.1222C10.0308 19.3195 9.94885 19.5194 9.86694 19.7236C9.32767 21.0786 8.86163 22.2493 8.48867 23.9519C8.13371 25.5701 7.96244 27.2311 7.97547 28.8965C7.84143 28.8139 7.70986 28.727 7.57831 28.6401C7.5057 26.6203 7.75641 24.657 8.33415 22.8011ZM8.06359 21.8862C8.52156 20.7652 9.072 19.7236 9.77137 18.4785C9.79061 18.5164 9.81047 18.5536 9.83033 18.5921C9.72793 18.8006 9.62616 19.0073 9.51942 19.224L9.40958 19.4462C8.6798 20.9272 8.34718 21.6031 8.00587 22.6993C7.44054 24.5161 7.18115 26.4329 7.22707 28.4042C7.02477 28.2627 6.82619 28.1156 6.63133 27.9642C6.81688 25.8078 7.29719 23.7632 8.06359 21.8862ZM9.58148 18.1148C8.82439 19.4561 8.23424 20.5603 7.74586 21.7558C6.99312 23.5981 6.51342 25.5993 6.31112 27.7053C6.15908 27.5806 6.00953 27.4521 5.86245 27.3217C6.09703 25.5688 6.5519 23.8607 7.22334 22.2406C7.90969 20.5827 8.68104 19.3469 9.55107 18.0552C9.561 18.075 9.57093 18.0943 9.58148 18.1148ZM8.77475 5.01222C9.9836 8.37025 10.4683 11.9679 10.2219 15.7275C10.1052 12.4309 9.49522 9.24049 8.39 6.22136C8.05242 5.29837 7.66208 4.38406 7.23203 3.49273C7.46723 3.32824 7.70738 3.17058 7.95188 3.01913C8.25286 3.67211 8.53273 4.33875 8.77475 5.01222ZM9.86011 5.11277C10.1629 6.3455 10.3839 7.73589 10.534 9.36339C10.7289 11.467 10.7587 13.6481 10.6408 15.8541C10.6352 15.8759 10.6296 15.8976 10.624 15.9193C10.5973 15.9553 10.5707 15.9901 10.5434 16.0273C10.8363 12.1206 10.3528 8.38081 9.09806 4.89553C8.8486 4.2022 8.56003 3.51445 8.24913 2.8416C8.50543 2.69077 8.76606 2.54491 9.03166 2.40897C9.3556 3.29224 9.63609 4.19909 9.86011 5.11277ZM11.0963 5.54231C11.5574 8.31439 11.5381 11.1355 11.0472 13.9604C11.0671 12.3912 11.0162 10.8407 10.8766 9.33173C10.7246 7.68685 10.5012 6.28033 10.194 5.03022C9.96375 4.09295 9.67581 3.16251 9.34194 2.25628C9.61872 2.12158 9.90107 1.9962 10.1872 1.87888C10.5818 3.07685 10.8902 4.30648 11.0963 5.54231ZM11.8037 4.03895C12.0886 5.713 12.1767 7.42615 12.0668 9.13C11.9831 10.4347 11.8012 11.4117 11.6219 12.3465C11.8714 10.0437 11.8118 7.74892 11.4351 5.48582C11.2253 4.22454 10.9101 2.97071 10.5061 1.74854C10.7382 1.65915 10.9734 1.57598 11.2105 1.49777C11.4568 2.33076 11.6579 3.18237 11.8037 4.03895ZM12.7315 3.17617C12.8283 3.94274 13.0436 5.93149 12.9511 7.8352C12.8934 9.02324 12.7463 9.56325 12.4789 10.5434C12.2927 11.2274 12.037 12.164 11.7162 13.691C11.6275 14.1168 11.5574 14.4718 11.499 14.789C11.4612 14.8362 11.4239 14.8833 11.3867 14.9305C11.5958 14.1391 11.7808 13.339 11.9353 12.5352C12.1245 11.5526 12.3206 10.5359 12.41 9.15235C12.5217 7.42119 12.4317 5.68197 12.1425 3.98122C11.9942 3.11037 11.7901 2.24448 11.5394 1.39721C11.823 1.31156 12.109 1.23273 12.3995 1.16259C12.5304 1.83109 12.6464 2.50456 12.7315 3.17617ZM10.2014 17.8392C10.1903 17.8181 10.1797 17.7976 10.1685 17.7765C10.2746 17.5903 10.382 17.4022 10.4943 17.2048C10.5216 17.1564 10.5582 17.0937 10.6023 17.0192L10.6035 17.0198C10.4738 17.2849 10.3392 17.558 10.2014 17.8392ZM10.7742 18.458C10.7444 18.5561 10.7146 18.6529 10.6848 18.751C10.6774 18.7379 10.6706 18.7249 10.6631 18.7113C10.7004 18.6262 10.737 18.5418 10.7742 18.458ZM10.4552 18.3289C10.436 18.2929 10.4168 18.2544 10.3975 18.2178C10.6935 17.6163 10.9703 17.0527 11.2266 16.5288C11.2185 16.5878 11.2111 16.6455 11.203 16.7057C11.2005 16.7237 11.198 16.743 11.1956 16.761C10.9498 17.2526 10.7016 17.7752 10.4552 18.3289ZM12.7135 23.2145L12.6086 23.2319C12.603 23.1729 12.5993 23.1139 12.5943 23.0543C12.634 23.1077 12.6737 23.1605 12.7135 23.2145ZM13.0864 23.7011L13.0287 23.7229C13.0206 23.6813 13.0132 23.6391 13.0051 23.5975C13.0318 23.6316 13.0597 23.667 13.0864 23.7011ZM13.653 24.41L13.6263 24.4261C13.6127 24.3938 13.6009 24.3616 13.5878 24.3299C13.6102 24.3566 13.6306 24.3833 13.653 24.41ZM15.5792 25.6439C15.4414 25.4975 15.2913 25.3355 15.1274 25.1536C14.461 24.4112 12.863 22.5553 11.1199 19.5275C11.28 18.6051 11.3792 17.9465 11.4543 17.4096C11.5282 17.17 11.602 16.9286 11.6771 16.6846C11.7063 16.5915 11.7348 16.4972 11.764 16.4028C12.6924 14.6171 13.5593 13.3043 14.1029 12.5439C14.5677 11.8934 15.0666 11.264 15.5792 10.6507V25.6439ZM15.5792 26.8581C15.4663 26.6992 15.349 26.5421 15.2398 26.3832C15.1057 26.1877 14.9773 25.9872 14.8463 25.7886C15.0797 26.0455 15.3254 26.3069 15.5792 26.5713V26.8581ZM13.8801 3.07934C13.9378 3.85274 14.0731 5.66334 13.7926 7.77686C13.648 8.8662 13.4588 9.58498 12.7811 11.8642C12.598 12.4812 12.428 13.0479 12.2654 13.5854C12.2623 13.5904 12.2598 13.5948 12.2567 13.5997L12.0172 13.997C12.0104 14.0075 12.0048 14.0175 11.9979 14.0286C12.0159 13.9399 12.0327 13.8567 12.0526 13.7617C12.3715 12.2447 12.6253 11.3137 12.8103 10.634C13.0839 9.63029 13.2347 9.07724 13.2943 7.85196C13.388 5.92156 13.1702 3.9086 13.0721 3.13334C12.9859 2.44994 12.868 1.76529 12.7346 1.08624C13.0262 1.02293 13.321 0.970169 13.6189 0.924236C13.733 1.63743 13.8261 2.35807 13.8801 3.07934ZM14.8525 3.24196C14.8407 5.39768 14.492 7.69058 13.8423 9.87361C13.7299 10.2516 13.5506 10.7265 13.3042 11.3087C13.8317 9.5136 14.0011 8.82151 14.1333 7.82217C14.4188 5.67327 14.2816 3.83784 14.2227 3.05389C14.1687 2.32393 14.0737 1.5946 13.9583 0.873338C14.214 0.839819 14.4721 0.811887 14.7315 0.791404C14.8147 1.60453 14.8569 2.42635 14.8525 3.24196ZM9.25755 14.1739C8.77537 12.3049 8.13123 10.4856 7.32325 8.74454C6.74055 7.48823 6.06538 6.25984 5.31884 5.08608C5.53232 4.87691 5.75137 4.67394 5.97726 4.47779C6.68346 5.75893 7.29967 7.09594 7.80233 8.46336C8.4806 10.3081 8.96464 12.2199 9.25755 14.1739ZM8.12502 8.3448C7.60809 6.9389 6.97326 5.56465 6.24472 4.24937C6.47371 4.05881 6.71014 3.87632 6.9503 3.69942C7.36421 4.56221 7.74089 5.44734 8.06731 6.33992C9.29292 9.68802 9.90231 13.2503 9.89672 16.9354C9.89238 16.9416 9.88866 16.9478 9.88432 16.954C9.72421 13.9895 9.1353 11.0939 8.12502 8.3448ZM16.3152 14.2397C16.3419 14.2602 16.3655 14.2819 16.3953 14.3017C16.6944 14.4985 17.0245 14.5407 18.0981 14.4786C18.4481 14.4582 18.9073 14.4253 19.4466 14.3682C19.57 14.3651 19.7786 14.3762 19.9995 14.4786C20.2967 14.6158 20.4767 14.8536 20.5965 15.0534C21.8233 17.098 22.056 18.6585 22.056 18.6585C22.4575 21.3499 21.7507 23.8557 21.3926 24.9394C21.1345 24.0109 20.8763 23.0817 20.6188 22.1531C20.8205 20.3406 20.5046 19.3698 20.154 18.8137C19.8592 18.3444 19.7587 18.309 19.3479 17.5511C18.6653 16.293 18.4555 15.2645 18.1862 15.2967C18.1316 15.3036 18.0596 15.3563 17.9913 15.563C17.9671 15.6772 17.9405 15.8268 17.9212 16.0043C17.9212 16.0043 17.8852 16.3346 17.8989 16.6902C17.9212 17.2842 18.3556 18.6784 19.248 20.3834C18.7286 19.9403 18.3463 19.5473 18.0981 19.278C17.5787 18.7137 17.3193 18.3295 16.749 17.9732C16.5951 17.8764 16.448 17.8013 16.3152 17.7411V14.2397ZM16.3152 11.8108C16.5628 11.8667 16.7862 11.8121 16.8377 11.8021C17.1151 11.7494 17.7077 12.0343 19.0798 13.4824C18.7155 13.3359 17.5414 12.9169 16.4393 13.4613C16.3953 13.483 16.3568 13.5085 16.3152 13.5327V11.8108ZM16.3152 0.749195C17.5917 0.780852 18.8297 0.964581 20.0106 1.29232C19.9951 1.76405 19.9908 2.3469 20.0218 3.02223C20.0491 3.62184 20.0715 4.11281 20.1627 4.69132C20.383 6.0997 20.764 6.47151 21.127 7.9761C21.2307 8.40625 21.3641 9.05676 21.4367 9.87857C21.2412 9.30876 20.9781 8.67874 20.6188 8.02079C19.719 6.37219 18.592 5.23257 17.722 4.50386C17.3435 4.20841 16.8588 3.88067 16.6826 4.01722C16.636 4.05385 16.4747 4.22889 17.0984 5.58451C17.8778 7.27781 18.8403 8.56453 19.3802 9.23676C20.4575 10.5769 20.6157 10.629 20.9725 11.2938C21.4199 12.1274 21.5974 12.8394 21.7904 13.6382C21.9909 14.4669 22.2019 15.6332 22.2329 17.0664C21.5385 15.4687 20.7131 14.4104 20.0659 13.7263C18.9501 12.547 17.8796 11.9691 17.4124 10.7848C17.3416 10.6054 17.1393 10.0431 16.6609 9.43601C16.5423 9.2858 16.4257 9.15855 16.3152 9.0462V0.749195ZM23.4268 4.52621C22.6698 5.32878 22.2453 6.14563 22.0113 6.70117C22.1237 6.08481 22.4656 3.78943 21.0389 1.96082C20.8943 1.77585 20.7429 1.6126 20.5896 1.46363C22.0535 1.93413 23.42 2.62187 24.6543 3.48714C24.277 3.74101 23.8501 4.07743 23.4268 4.52621ZM30.716 12.318C31.0027 13.4824 31.1578 14.6984 31.1578 15.9503C31.1578 16.5524 31.1187 17.1452 31.0504 17.7293C30.6111 17.8572 30.217 17.9304 29.8832 17.9732C28.9933 18.0856 28.5645 17.977 27.6305 18.0769C26.9771 18.147 26.4229 18.2823 25.9916 18.4152C27.3227 17.4382 29.1497 15.7722 30.3473 13.1956C30.4864 12.8983 30.608 12.6047 30.716 12.318ZM30.3697 11.5371C30.2015 11.5712 29.5369 11.7333 28.5564 13.1516C28.3026 13.519 27.8235 14.2217 27.4288 15.2527C27.1508 15.9789 27.139 16.2824 26.8095 16.7784C26.4403 17.3364 25.973 17.6815 25.6379 17.8845C25.8762 17.4326 26.2014 16.7219 26.4117 15.8057C26.6327 14.8424 26.4819 14.694 26.655 13.3949C26.8883 11.6451 27.3327 10.5998 26.956 10.3671C26.8579 10.3069 26.7382 10.3218 26.655 10.3429C26.5644 10.4707 26.4397 10.6514 26.3013 10.8736C26.3013 10.8736 25.6 11.8698 25.3065 12.9083C24.7499 14.8747 24.8641 16.7343 24.8641 16.7343C24.8963 17.2631 24.9739 17.8652 24.6649 18.548C24.4681 18.9825 24.1889 19.286 23.9822 19.4747C23.4982 20.0656 23.0142 20.6559 22.5307 21.2462C22.6871 20.3859 22.8609 19.0793 22.8075 17.4866C22.779 16.6244 22.6847 15.9566 22.4979 14.6555C22.0703 11.6743 21.6347 10.1629 22.1888 8.92703C22.4817 8.27404 22.8963 7.7992 22.8963 7.7992C23.3555 7.27346 23.5652 7.30325 23.9574 6.87062C24.4545 6.32129 24.6171 5.72107 24.8163 4.98367C24.9007 4.67083 24.99 4.25682 25.0347 3.75777C27.6001 5.67576 29.5412 8.38391 30.4969 11.5172C30.4553 11.5228 30.4137 11.5278 30.3697 11.5371ZM25.6764 0.736783C26.1753 1.58467 26.7555 2.37855 27.4127 3.09423C27.9278 3.65473 28.4466 4.12399 28.9455 4.52124C28.3572 4.16061 28.0569 3.96943 27.4748 3.46728C26.5495 2.66843 25.6981 1.74792 24.9267 0.736783H25.6764ZM26.8809 0.736783C27.0503 1.09493 27.2321 1.44749 27.4369 1.78454C28.5936 3.68701 30.1035 4.88001 31.1075 5.55224C30.1624 5.01905 28.9039 4.2084 27.6659 2.86147C27.0702 2.21345 26.5402 1.49839 26.0773 0.736783H26.8809ZM27.7906 0.736783C28.3802 1.82799 29.0491 2.88443 29.7901 3.87695C29.9576 4.10164 30.1208 4.31206 30.2822 4.51193C29.45 3.83039 28.5074 2.88319 27.7304 1.60577C27.5598 1.32521 27.4065 1.03286 27.2613 0.736783H27.7906ZM32.5516 6.87248C32.4225 6.78372 32.2891 6.69248 32.147 6.59565C31.9223 6.44295 31.7151 6.30267 31.5177 6.17046C31.5469 6.18598 31.5773 6.20212 31.6052 6.21702L31.7051 6.2704C31.7405 6.28964 31.9019 6.37716 32.1718 6.52923C32.2965 6.64406 32.4225 6.75827 32.5516 6.87248ZM28.9157 0.736783C29.2248 1.34818 29.5549 1.95399 29.9142 2.53684C30.6663 3.76025 31.5109 4.89677 32.4964 6.01094C32.5063 6.02211 32.5162 6.03204 32.5255 6.04322C32.3958 5.9557 32.2674 5.87252 32.1395 5.79493L32.044 5.73721C31.9074 5.65466 31.7287 5.54665 31.5227 5.41382C31.048 4.91477 30.5794 4.36048 30.065 3.67149C29.3712 2.74167 28.7426 1.75537 28.1822 0.736783H28.9157ZM29.7243 0.736783C29.9552 1.19052 30.1934 1.64426 30.4411 2.08868C30.4497 2.10482 31.3589 3.73232 32.3065 5.11029C32.5789 5.50568 32.8774 5.89114 33.2019 6.2735C33.0511 6.11088 32.8997 5.94825 32.7539 5.78314C31.7815 4.68387 30.9487 3.56287 30.2065 2.35683C29.8832 1.83109 29.5853 1.28673 29.3023 0.736783H29.7243ZM33.9938 7.64961C33.9168 7.58568 33.8424 7.52361 33.7679 7.46154C33.7828 7.47023 33.7971 7.47892 33.8113 7.48761C33.8721 7.54099 33.9323 7.59437 33.9938 7.64961ZM30.6533 0.736783C30.9977 1.40963 31.3551 2.0862 31.7231 2.7516C32.4802 4.12026 33.1908 5.30085 34.3289 6.99849C33.6562 6.30702 33.0797 5.62734 32.5901 4.91539C31.6512 3.55107 30.7501 1.93723 30.7408 1.92109C30.5236 1.53129 30.3145 1.13466 30.1103 0.736783H30.6533ZM31.7355 0.736783C31.8901 1.10052 32.0924 1.56977 32.335 2.11848C33.0393 3.70687 33.7282 5.1494 34.4623 6.57951C33.4179 5.01036 32.7415 3.88253 32.0235 2.58525C31.6859 1.97447 31.3582 1.35501 31.0405 0.736783H31.7355ZM32.6521 0.736783C32.9667 1.58095 33.2894 2.42883 33.6146 3.26182C34.0819 4.45731 34.6056 5.79618 35.1958 7.24429C34.2997 5.54479 33.4855 3.86515 32.6496 1.97944C32.4362 1.49839 32.255 1.07879 32.1091 0.736783H32.6521ZM33.6419 0.736783C34.1309 1.82178 34.5548 2.90802 34.8979 3.97067C35.1735 4.82229 35.3696 5.56341 35.4422 5.86694C35.6246 6.63165 35.781 7.40257 35.7829 7.41002L35.812 7.55589C35.8319 7.65582 35.8505 7.74954 35.8809 7.89107C35.8933 7.94879 35.9126 8.03817 35.9355 8.13997C35.1691 6.29212 34.5095 4.60752 33.9348 3.13644C33.6258 2.34504 33.3192 1.53998 33.0189 0.736783H33.6419ZM34.7614 0.736783C35.1226 1.70695 35.4335 2.68953 35.6823 3.6628C35.9386 4.66773 36.0695 5.39209 36.1037 5.58948C36.2371 6.36474 36.3438 7.14435 36.3451 7.1518L36.3656 7.30264C36.3786 7.40195 36.391 7.49629 36.4121 7.63782C36.4462 7.86872 36.4791 8.06611 36.517 8.29453C36.5437 8.45219 36.5728 8.62661 36.6057 8.83516C36.5437 8.79482 36.4804 8.75323 36.4189 8.7135C36.3488 8.4106 36.2532 7.98852 36.2172 7.81968C36.1868 7.6794 36.1688 7.58754 36.149 7.48885L36.1198 7.34174C36.118 7.33429 35.9603 6.55779 35.7766 5.78687C35.7028 5.47837 35.5036 4.72669 35.2256 3.86515C34.893 2.83664 34.4853 1.7864 34.018 0.736783H34.7614ZM35.8071 0.736783C35.9535 1.50212 36.1279 2.42014 36.3265 3.48155C36.499 4.40455 36.5784 4.8378 36.6485 5.42934C36.7422 6.21081 36.8093 6.99414 36.8099 7.00159L36.8217 7.14373C36.8297 7.24739 36.8378 7.3436 36.8521 7.49133C36.8738 7.72285 36.8968 7.92148 36.9228 8.15114C36.9421 8.31687 36.9625 8.49812 36.9867 8.72033C36.9992 8.83827 37.0122 8.9711 37.0258 9.11076C37.0153 9.10331 37.0041 9.09648 36.993 9.08903C36.9781 8.98848 36.9632 8.89227 36.9489 8.80475C36.9141 8.58316 36.8837 8.40253 36.8564 8.23742C36.8186 8.01149 36.7857 7.81596 36.7522 7.58816C36.7317 7.44788 36.7193 7.35539 36.7062 7.25732L36.6858 7.10525C36.6845 7.09718 36.5766 6.31261 36.4425 5.53113C36.4078 5.33002 36.275 4.5951 36.0149 3.57776C35.7735 2.63242 35.4738 1.67964 35.1275 0.736783H35.8071ZM36.8533 0.736783C36.9445 1.47232 37.05 2.33573 37.1686 3.32203C37.2796 4.25558 37.3305 4.69318 37.3622 5.28719C37.4044 6.07301 37.4193 6.85883 37.4193 6.8669L37.4218 7.01214C37.4236 7.11456 37.4249 7.21077 37.4292 7.35788C37.436 7.5894 37.446 7.78927 37.4565 8.01955C37.4726 8.34853 37.4925 8.75571 37.5111 9.43229C37.4726 9.40684 37.4329 9.38015 37.3951 9.3547C37.3721 9.112 37.3492 8.87923 37.3281 8.68371C37.3045 8.46088 37.2834 8.27839 37.2641 8.11204C37.2381 7.88486 37.2157 7.6881 37.194 7.45843C37.1804 7.31319 37.1723 7.21822 37.1642 7.11642L37.1524 6.97304C37.1518 6.96497 37.0842 6.17605 36.9905 5.38899C36.9179 4.78628 36.8384 4.34931 36.664 3.41824C36.4711 2.38601 36.301 1.49032 36.1571 0.736783H36.8533ZM37.5316 10.359C37.5148 10.3441 37.4987 10.3292 37.4813 10.3149C37.4813 10.3112 37.4807 10.3081 37.4807 10.3044C37.4975 10.3187 37.5148 10.3329 37.5316 10.3472C37.5316 10.3509 37.5316 10.3553 37.5316 10.359ZM37.912 10.6638C37.9114 10.6718 37.9108 10.6799 37.9108 10.6886C37.9008 10.6799 37.8909 10.6712 37.881 10.6625C37.881 10.6545 37.881 10.6458 37.8804 10.6377C37.8909 10.6464 37.9015 10.6551 37.912 10.6638ZM37.8723 10.1833C37.8717 10.1523 37.871 10.1194 37.8704 10.089C37.894 10.1045 37.917 10.1207 37.9405 10.1362C37.9393 10.1697 37.9374 10.202 37.9356 10.2367C37.9139 10.2187 37.8934 10.2013 37.8723 10.1833ZM37.9579 0.736783C37.9902 1.38604 38.0324 2.23455 38.0796 3.24693C38.1559 4.86884 38.1776 5.41444 38.1261 6.08915L38.118 6.18784C38.1007 6.40013 38.0696 6.78 38.0473 7.29022C38.0374 7.52237 38.0324 7.72223 38.0268 7.95376C38.0175 8.33736 38.0057 8.82709 37.9616 9.72464C37.9517 9.72091 37.9393 9.71719 37.9294 9.71347C37.9064 9.69795 37.8835 9.68243 37.8611 9.66691C37.8406 8.83827 37.8177 8.37149 37.8003 8.00279C37.7891 7.77499 37.7792 7.57699 37.773 7.34795C37.7687 7.2027 37.7668 7.10835 37.7655 7.00656L37.7631 6.86069C37.7631 6.85262 37.7476 6.0606 37.7054 5.26919C37.6731 4.664 37.6222 4.22206 37.5099 3.28107C37.3938 2.31338 37.2896 1.46363 37.1996 0.736783H37.9579ZM38.2725 10.3633C38.2775 10.3665 38.2819 10.3696 38.2862 10.3727C38.2806 10.4192 38.275 10.4645 38.2694 10.5129C38.2676 10.5117 38.2663 10.5105 38.2645 10.5092C38.2676 10.4596 38.2701 10.4111 38.2725 10.3633ZM38.4227 3.23017C38.3762 2.22772 38.3346 1.38418 38.3017 0.736783H38.9527C38.9428 1.38542 38.9291 2.23269 38.9099 3.2401C38.8795 4.86449 38.8646 5.4101 38.769 6.07984L38.7541 6.17853C38.7231 6.38957 38.6672 6.76572 38.612 7.27284C38.5866 7.50437 38.5686 7.70361 38.5475 7.93452C38.5115 8.3386 38.4637 8.86123 38.3483 9.85312C38.3321 9.84754 38.316 9.84133 38.3005 9.83637C38.3483 8.87427 38.3607 8.36094 38.3706 7.96183C38.3762 7.73341 38.3811 7.5354 38.3911 7.30512C38.4128 6.80048 38.4432 6.42557 38.4606 6.21577L38.4686 6.11584C38.522 5.42065 38.4997 4.86884 38.4227 3.23017ZM39.0942 6.22943L39.1091 6.12825C39.2077 5.43865 39.2226 4.88684 39.2537 3.24631C39.2729 2.23517 39.2865 1.38666 39.2965 0.736783H39.9965C40.0269 1.40467 40.0201 2.07813 39.9716 2.74415C39.8904 3.86267 39.7228 4.63669 39.5099 5.61679L39.4001 6.12701C39.1978 7.07794 39.1401 7.44974 39.06 7.96369C38.9949 8.38081 38.9105 8.9233 38.715 9.98596C38.7032 9.98161 38.6914 9.97665 38.6803 9.9723C38.8031 8.92393 38.8522 8.38267 38.89 7.96555C38.9105 7.73713 38.9285 7.53974 38.9539 7.31008C39.0085 6.80917 39.0638 6.43737 39.0942 6.22943ZM47.473 22.9091V0H15.5792V0.00931025C6.95588 0.206075 0 7.27905 0 15.9503C0 24.6223 6.95588 31.6952 15.5792 31.892V31.9013H42.8107C42.8331 31.9342 42.8542 31.9677 42.8771 32L43.0174 31.9013H47.473V23.1928L47.6101 23.0891C47.5648 23.0289 47.5183 22.9693 47.473 22.9091Z" fill="white"/>
<path d="M11.1544 16.3292C11.0501 16.5092 10.9458 16.6892 10.8416 16.8686C10.7615 17.0076 10.6802 17.1479 10.6263 17.2987C10.517 17.6016 10.5096 17.9573 10.2912 18.1932" fill="white"/>
<path d="M10.7143 16.0988C11.006 15.7202 11.2573 15.3099 11.4621 14.8779C11.1338 15.2267 10.8471 15.6147 10.6113 16.0312" fill="white"/>
<path d="M13.2217 13.1085C13.1584 13.3096 12.9729 13.4418 12.8127 13.579C12.4975 13.8484 12.2424 14.1885 12.0724 14.5672" fill="white"/>
<path d="M11.4388 14.6117C11.4754 14.9226 11.4481 15.2411 11.3588 15.5415L11.4388 14.6117Z" fill="white"/>
<path d="M11.734 14.5608C11.878 14.3634 12.089 14.2256 12.2528 14.0443C12.4166 13.8631 12.5339 13.5999 12.4353 13.3758" fill="white"/>
<path d="M12.0975 13.9384C12.5208 13.5617 12.8478 13.0781 13.0402 12.545C12.7858 12.7597 12.5959 13.0508 12.5009 13.3705" fill="white"/>
<path d="M12.894 13.3909C12.6153 13.9452 12.1406 14.399 11.5747 14.6528C11.5331 14.587 11.5523 14.4902 11.6162 14.4467C11.5771 14.4908 11.5374 14.5349 11.4977 14.579C11.5672 14.5063 11.6181 14.4157 11.6448 14.3189C11.3078 14.3673 11.1353 14.7465 11.0658 15.0799C10.9994 15.4008 10.9715 15.7291 10.884 16.0451C10.7965 16.3604 10.6407 16.672 10.3751 16.8632C10.6264 16.7136 10.7884 16.4243 10.7841 16.1313C10.5811 16.3349 10.4601 16.6174 10.4521 16.9041C10.4409 16.7812 10.4806 16.654 10.5607 16.5596" fill="white"/>
<path d="M10.7717 16.2441C10.6637 16.3664 10.6619 16.5464 10.6588 16.709C10.6457 17.3186 10.5278 17.9256 10.3106 18.4954" fill="white"/>
<path d="M10.5597 17.6638C10.6963 17.6811 10.731 17.8605 10.7316 17.9983L10.7366 18.9021" fill="white"/>
<path d="M12.6552 13.5555C12.5423 13.9198 12.3326 14.2538 12.0527 14.5132L12.6552 13.5555Z" fill="white"/>
<path d="M110.395 13.9007C110.751 13.1875 110.949 12.3918 110.987 11.5128C111.038 10.3155 111.063 9.35402 111.063 8.62841C111.063 7.36775 111.012 6.30448 110.911 5.43797C110.796 4.45725 110.554 3.62985 110.185 2.95452C109.803 2.26677 109.224 1.71931 108.447 1.31212C107.695 0.917354 106.632 0.719347 105.258 0.719347C104.506 0.719347 103.945 0.770867 103.576 0.872042C103.182 0.961424 102.851 1.14639 102.584 1.42633C102.38 1.66841 102.227 2.04456 102.125 2.55354C102.023 3.06252 101.973 3.68075 101.973 4.40636V18.2184C102.469 17.8621 103.176 17.5014 104.092 17.1383C105.009 16.7752 105.859 16.4698 106.642 16.2215C107.425 15.9733 108.183 15.6455 108.915 15.2377C109.647 14.8305 110.139 14.3849 110.395 13.9007ZM119.963 31.4562H113.508C112.922 31.4562 112.496 31.3228 112.228 31.0552C111.961 30.7871 111.75 30.3358 111.598 29.6984C111.407 28.871 111.247 27.9982 111.12 27.0821C110.916 25.7823 110.65 24.4329 110.319 23.0313C110.051 21.7837 109.886 20.9371 109.822 20.4908C109.669 19.5485 109.389 18.8074 108.981 18.2655C108.574 17.7249 108.096 17.3934 107.549 17.2724C107.002 17.1514 106.396 17.1644 105.735 17.3103C105.073 17.4567 104.43 17.6988 103.806 18.0365C103.182 18.3742 102.57 18.7851 101.973 19.2686V26.8903C101.973 27.655 102.023 28.3111 102.125 28.8585C102.214 29.3806 102.38 29.8132 102.621 30.1571C102.901 30.4885 103.27 30.7306 103.729 30.8833C104.213 31.0366 104.824 31.1254 105.563 31.1502V31.5133H93.0722V31.1502C93.8237 31.1254 94.4349 31.0366 94.9059 30.8833C95.3645 30.7306 95.7393 30.4885 96.0322 30.1571C96.3003 29.8008 96.4784 29.3675 96.5672 28.8585C96.6689 28.3111 96.7198 27.655 96.7198 26.8903V12.0858C96.924 5.22134 98.432 1.41392 101.247 0.662242H93.0722V0.165676C93.1994 0.191125 93.6456 0.203537 94.4095 0.203537H106.403C108.186 0.203537 109.758 0.426995 111.12 0.872042C112.47 1.29226 113.597 1.85959 114.501 2.57216C115.405 3.29839 116.079 4.13883 116.526 5.0941C116.984 6.1133 117.213 7.13188 117.213 8.15047C117.213 8.8767 117.073 9.69169 116.793 10.5954C116.526 11.4489 116.055 12.2838 115.379 13.0981C114.756 13.8498 113.857 14.563 112.686 15.2377C111.515 15.8746 110.121 16.3209 108.504 16.5753C109.369 16.5878 110.401 16.8298 111.598 17.3009C112.285 17.5815 112.864 17.957 113.336 18.4275C113.819 18.8999 114.215 19.4529 114.52 20.0898C114.812 20.7391 115.08 21.5292 115.322 22.459C115.755 24.1523 116.055 25.6302 116.22 26.8903C116.373 28.0249 116.557 28.8964 116.774 29.5078C117.015 30.1571 117.34 30.5711 117.748 30.7492C118.142 30.9528 118.881 31.0552 119.963 31.0552V31.4562Z" fill="white"/>
<path d="M148.413 9.71719H148.05C147.885 8.12507 147.688 6.79428 147.458 5.7248C147.203 4.57835 146.828 3.65473 146.332 2.95457C145.861 2.24138 145.186 1.70012 144.307 1.3308C143.441 0.974515 142.308 0.795749 140.908 0.795749H138.922V26.4316C138.922 27.3999 138.979 28.133 139.093 28.6296C139.195 29.177 139.425 29.6481 139.781 30.0423C140.112 30.4122 140.57 30.6735 141.156 30.8262C141.755 31.0044 142.525 31.1 143.467 31.1124V31.5134H129.277V31.1124C130.218 31.0869 130.983 30.992 131.569 30.8262C132.168 30.6735 132.632 30.4122 132.963 30.0423C133.294 29.6736 133.523 29.2018 133.65 28.6296C133.765 28.056 133.823 27.3236 133.823 26.4316V0.795749H131.377C129.965 0.795749 128.857 0.974515 128.054 1.3308C127.252 1.68771 126.635 2.22897 126.202 2.95457C125.756 3.69322 125.438 4.61621 125.247 5.7248C125.018 7.20208 124.846 8.53288 124.731 9.71719H124.311V0.16573H148.452L148.413 9.71719Z" fill="white"/>
<path d="M166.603 15.581C166.972 15.5301 167.297 15.4277 167.577 15.2756C168.035 15.046 168.398 14.7213 168.666 14.3011C169.175 13.601 169.481 12.8369 169.583 12.0088C169.672 11.2193 169.78 10.449 169.907 9.69733H170.365V22.1525H169.907C169.78 21.0954 169.665 20.1656 169.564 19.363C169.423 18.4338 169.086 17.6827 168.551 17.1092C168.105 16.6002 167.456 16.288 166.603 16.1732V15.581ZM177.643 31.5134H153.998V31.1503C154.775 31.1248 155.393 31.0422 155.85 30.902C156.309 30.7487 156.678 30.5004 156.958 30.1565C157.239 29.7741 157.423 29.3421 157.512 28.858C157.601 28.3738 157.646 27.7115 157.646 26.8705V9.83078V12.1808C157.887 5.29092 159.396 1.47667 162.173 0.738024H153.998V0.260701H177.451V8.1499H177.107C177.197 5.50134 176.642 3.62246 175.445 2.51449C174.274 1.41956 172.505 0.871479 170.136 0.871479H166.393C165.641 0.871479 165.037 0.929205 164.578 1.04404C164.108 1.1837 163.745 1.40653 163.49 1.71254C163.235 2.00489 163.056 2.4127 162.955 2.93471C162.866 3.41886 162.822 4.07495 162.822 4.90236V26.8705C162.822 27.6991 162.866 28.3546 162.955 28.8387C163.056 29.3732 163.235 29.7878 163.49 30.0802C163.707 30.3477 164.069 30.5581 164.578 30.7108C165.088 30.8387 165.693 30.902 166.393 30.902H169.697C171.441 30.8889 172.81 30.717 173.803 30.3855C174.72 30.0926 175.401 29.6028 175.847 28.9145C176.279 28.2782 176.554 27.4508 176.668 26.4316C176.757 25.706 176.891 24.4702 177.069 22.7254H177.451L177.643 31.5134Z" fill="white"/>
<path d="M208.411 0.299308V0.643181C207.596 0.643181 206.852 0.866015 206.177 1.31168C205.515 1.74432 205.018 2.3433 204.688 3.10739L197.869 18.9243L197.812 26.8526C197.812 27.6806 197.856 28.3553 197.945 28.878C198.047 29.4124 198.225 29.8388 198.48 30.1572C198.76 30.4887 199.123 30.7302 199.569 30.8828C200.053 31.0622 200.683 31.1566 201.459 31.1702V31.5135H188.892V31.1702C189.644 31.1566 190.261 31.0622 190.745 30.8828C191.216 30.7302 191.585 30.4887 191.853 30.1572C192.121 29.8519 192.304 29.4254 192.407 28.878C192.496 28.3553 192.54 27.6806 192.54 26.8526V20.2613L183.487 3.68031C182.889 2.55993 182.392 1.7828 181.998 1.34955C181.591 0.9045 181.228 0.681045 180.91 0.681045V0.299308H192.196V0.681045C191.496 0.681045 190.93 0.719527 190.497 0.795875C190 0.846773 189.599 1.00567 189.293 1.27382C189 1.52831 188.848 1.89143 188.836 2.36254C188.836 2.85911 189.058 3.53444 189.504 4.38729L197.372 18.8293L203.904 3.68031C204.044 3.34947 204.096 2.98636 204.057 2.59158C204.019 2.24771 203.898 1.92246 203.693 1.61707C203.452 1.31168 203.185 1.07581 202.892 0.910706C202.56 0.732563 202.198 0.643181 201.803 0.643181H200.734V0.299308H208.411Z" fill="white"/>
<path d="M231.082 20.4142L230.719 19.4397L230.357 18.5036L225.315 5.07398L219.28 21.5799L219.089 22.0187L218.63 23.28L217.045 27.6926C216.905 28.0874 216.86 28.4952 216.911 28.9148C216.95 29.3356 217.089 29.7173 217.332 30.0612C217.586 30.3921 217.885 30.6472 218.229 30.8253C218.624 31.0165 219.044 31.1115 219.49 31.1115V31.5131H211.678V31.1115C212.748 31.1115 213.727 30.8129 214.619 30.2139C215.499 29.5901 216.11 28.7751 216.452 27.7689L226.346 0.642743H222.87L222.717 0.260386H229.23L239.906 27.826C240.352 28.9092 240.861 29.7298 241.434 30.2909C242.007 30.8253 242.529 31.099 243 31.1115V31.5131H230.911V31.1115C231.992 31.0481 232.776 30.8383 233.259 30.4814C233.782 30.1127 234.043 29.6093 234.043 28.9725C234.043 28.5262 233.877 27.8447 233.546 26.9285L233.374 26.4698L232.954 25.324L232.343 23.7374L231.674 22.0187L231.082 20.4142Z" fill="white"/>
<path d="M77.1622 20.4142L76.7992 19.4397L76.4368 18.5036L71.3947 5.07398L65.3592 21.5799L65.1686 22.0187L64.71 23.28L63.1251 27.6926C62.9849 28.0874 62.9402 28.4952 62.9911 28.9148C63.0289 29.3356 63.1692 29.7173 63.4112 30.0612C63.6656 30.3921 63.9654 30.6472 64.3085 30.8253C64.7032 31.0165 65.1233 31.1115 65.5695 31.1115V31.5131H57.7579V31.1115C58.8277 31.1115 59.8076 30.8129 60.6993 30.2139C61.5774 29.5901 62.1887 28.7751 62.5325 27.7689L72.4261 0.642743H68.9497L68.7971 0.260386H75.3092L85.9854 27.826C86.4316 28.9092 86.9404 29.7298 87.5138 30.2909C88.0866 30.8253 88.6085 31.099 89.0795 31.1115V31.5131H76.9903V31.1115C78.0726 31.0481 78.8551 30.8383 79.3392 30.4814C79.8617 30.1127 80.1223 29.6093 80.1223 28.9725C80.1223 28.5262 79.9566 27.8447 79.6259 26.9285L79.454 26.4698L79.0339 25.324L78.4226 23.7374L77.7543 22.0187L77.1622 20.4142Z" fill="white"/>
<path d="M225.75 25.2178L222.544 20.3992H228.957L225.75 25.2178Z" fill="white"/>
<path d="M71.3683 25.2178L68.1619 20.3992H74.5747L71.3683 25.2178Z" fill="white"/>
</svg>
