<svg width="58" height="60" viewBox="0 0 58 60" fill="none" xmlns="http://www.w3.org/2000/svg">
<path fill-rule="evenodd" clip-rule="evenodd" d="M45.8813 53.3941H6.44108C5.94381 53.3941 5.53906 52.9115 5.53906 52.3186V1.07546C5.53906 0.48258 5.94381 0 6.44108 0H45.8813C46.3786 0 46.7833 0.48258 46.7833 1.07546V22.2125C46.7833 22.8054 46.3786 23.288 45.8813 23.288C45.384 23.288 44.9793 22.8054 44.9793 22.2125V2.15093H7.3431V51.2363H44.9793V35.0836C44.9793 34.4907 45.384 34.0081 45.8813 34.0081C46.3786 34.0081 46.7833 34.4907 46.7833 35.0836V52.3117C46.7833 52.9046 46.3786 53.3872 45.8813 53.3872V53.3941Z" fill="#586C5C"/>
<path fill-rule="evenodd" clip-rule="evenodd" d="M40.3423 59.9982H0.902036C0.404769 59.9982 0 59.5156 0 58.9227V9.92703C0 9.33414 0.404769 8.85156 0.902036 8.85156H6.43556C6.93283 8.85156 7.33758 9.33414 7.33758 9.92703V51.2428H40.3365C40.8337 51.2428 41.2385 51.7254 41.2385 52.3183V58.9158C41.2385 59.5087 40.8337 59.9913 40.3365 59.9913L40.3423 59.9982ZM1.80405 57.8473H39.4402V53.4006H6.44135C5.94409 53.4006 5.53933 52.9181 5.53933 52.3252V11.0094H1.80982V57.8542L1.80405 57.8473Z" fill="#586C5C"/>
<path fill-rule="evenodd" clip-rule="evenodd" d="M37.5777 46.6422C37.4158 46.6422 37.2596 46.594 37.1151 46.4906C36.8028 46.27 36.6352 45.8494 36.6814 45.422L37.6181 37.3836C37.6586 37.0251 37.8436 36.7218 38.1154 36.5632C38.3872 36.4047 38.7052 36.4184 38.9654 36.5977L43.6143 39.8034C43.8802 39.9895 44.0479 40.3135 44.0653 40.6789C44.0826 41.0443 43.9438 41.3959 43.6952 41.6027L38.1096 46.4423C37.9535 46.5802 37.7685 46.6491 37.5777 46.6491V46.6422ZM39.2256 39.2519L38.7688 43.2021L41.5153 40.8237L39.2314 39.245L39.2256 39.2519Z" fill="#586C5C"/>
<path fill-rule="evenodd" clip-rule="evenodd" d="M43.1661 41.8042C43.01 41.8042 42.8539 41.756 42.7151 41.6595L38.0663 38.4538C37.6326 38.1573 37.488 37.5024 37.7367 36.9853L49.5901 12.353C49.7116 12.1049 49.9082 11.9256 50.1394 11.8498C50.3707 11.7739 50.6194 11.8153 50.8275 11.9601L55.4764 15.1658C55.91 15.4622 56.0546 16.1172 55.806 16.6342L43.9525 41.2665C43.8311 41.5147 43.6345 41.6939 43.4032 41.7698C43.328 41.7973 43.2471 41.8042 43.1661 41.8042ZM39.7489 37.1232L42.8366 39.2535L53.788 16.4894L50.7003 14.3592L39.7489 37.1232Z" fill="#586C5C"/>
<path fill-rule="evenodd" clip-rule="evenodd" d="M55.0197 17.1716C54.8635 17.1716 54.7074 17.1234 54.5686 17.0269L49.9198 13.8212C49.4861 13.5247 49.3415 12.8698 49.5902 12.3527L51.134 9.14013C51.7701 7.81648 52.9612 6.99609 54.2448 6.99609C54.8693 6.99609 55.488 7.19602 56.0315 7.5683C57.7431 8.74717 58.3386 11.3738 57.3556 13.4144L55.8118 16.627C55.6904 16.8752 55.4938 17.0545 55.2625 17.1303C55.1873 17.1579 55.1064 17.1648 55.0254 17.1648L55.0197 17.1716ZM51.6024 12.4906L54.6901 14.6209L55.7829 12.3458C56.2744 11.3255 55.9795 10.0226 55.1237 9.43657C54.8577 9.25043 54.5513 9.15392 54.2448 9.15392C53.603 9.15392 53.0132 9.56066 52.701 10.2156L51.6024 12.4975V12.4906Z" fill="#586C5C"/>
<path fill-rule="evenodd" clip-rule="evenodd" d="M39.1964 12.6587H13.1188C12.6215 12.6587 12.2168 12.1762 12.2168 11.5833C12.2168 10.9904 12.6215 10.5078 13.1188 10.5078H39.1964C39.6937 10.5078 40.0984 10.9904 40.0984 11.5833C40.0984 12.1762 39.6937 12.6587 39.1964 12.6587Z" fill="#586C5C"/>
<path fill-rule="evenodd" clip-rule="evenodd" d="M30.5618 21.4712H13.1227C12.6255 21.4712 12.2207 20.9887 12.2207 20.3958C12.2207 19.8029 12.6255 19.3203 13.1227 19.3203H30.5618C31.059 19.3203 31.4638 19.8029 31.4638 20.3958C31.4638 20.9887 31.059 21.4712 30.5618 21.4712Z" fill="#586C5C"/>
<path fill-rule="evenodd" clip-rule="evenodd" d="M33.0654 30.2994H13.1227C12.6255 30.2994 12.2207 29.8168 12.2207 29.2239C12.2207 28.631 12.6255 28.1484 13.1227 28.1484H33.0654C33.5627 28.1484 33.9675 28.631 33.9675 29.2239C33.9675 29.8168 33.5627 30.2994 33.0654 30.2994Z" fill="#586C5C"/>
<path fill-rule="evenodd" clip-rule="evenodd" d="M33.0654 39.1197H13.1227C12.6255 39.1197 12.2207 38.6371 12.2207 38.0442C12.2207 37.4513 12.6255 36.9688 13.1227 36.9688H33.0654C33.5627 36.9688 33.9675 37.4513 33.9675 38.0442C33.9675 38.6371 33.5627 39.1197 33.0654 39.1197Z" fill="#586C5C"/>
<path fill-rule="evenodd" clip-rule="evenodd" d="M25.2638 46.8426C23.4193 46.8426 21.7425 45.9533 20.8173 45.1743C20.4068 44.8296 20.3085 44.1609 20.5976 43.6714C20.8867 43.1819 21.4476 43.0647 21.8581 43.4094C22.0027 43.5266 25.3968 46.2773 28.1838 43.375C32.0636 39.342 37.8805 44.4849 38.1234 44.7055C38.5223 45.064 38.5975 45.7396 38.2968 46.2153C37.9962 46.691 37.4295 46.7806 37.0305 46.429C36.9843 46.3876 32.1446 42.1203 29.3634 45.0019C28.0566 46.3601 26.6111 46.8426 25.258 46.8426H25.2638Z" fill="#586C5C"/>
</svg>
