<svg width="70" height="65" viewBox="0 0 70 65" fill="none" xmlns="http://www.w3.org/2000/svg">
<path fill-rule="evenodd" clip-rule="evenodd" d="M25.9763 13.2635H17.6815C17.4068 13.2635 17.15 13.1403 16.9709 12.9247C16.7917 12.7091 16.7141 12.4258 16.7619 12.1425L18.2727 2.80464C18.3444 2.34268 18.7385 2.00391 19.1924 2.00391H24.4654C24.9253 2.00391 25.3075 2.34268 25.3851 2.80464L26.884 12.0747C26.9019 12.1486 26.9079 12.2225 26.9079 12.3026C26.9079 12.8323 26.4899 13.2635 25.9763 13.2635ZM18.7803 11.3417H24.8715L23.6712 3.92567H19.9747L18.7743 11.3417H18.7803Z" fill="#586C5C"/>
<path fill-rule="evenodd" clip-rule="evenodd" d="M26.7559 3.92177H16.8906C16.377 3.92177 15.959 3.4906 15.959 2.96088C15.959 2.43117 16.377 2 16.8906 2H26.7559C27.2695 2 27.6875 2.43117 27.6875 2.96088C27.6875 3.4906 27.2695 3.92177 26.7559 3.92177Z" fill="#586C5C"/>
<path fill-rule="evenodd" clip-rule="evenodd" d="M27.8072 13.2655H15.8398C15.3262 13.2655 14.9082 12.8344 14.9082 12.3046C14.9082 11.7749 15.3262 11.3438 15.8398 11.3438H27.8072C28.3208 11.3438 28.7388 11.7749 28.7388 12.3046C28.7388 12.8344 28.3208 13.2655 27.8072 13.2655Z" fill="#586C5C"/>
<path fill-rule="evenodd" clip-rule="evenodd" d="M21.8261 21.1497C21.3126 21.1497 20.8945 20.7185 20.8945 20.1888V12.3046C20.8945 11.7749 21.3126 11.3438 21.8261 11.3438C22.3397 11.3438 22.7577 11.7749 22.7577 12.3046V20.1888C22.7577 20.7185 22.3397 21.1497 21.8261 21.1497Z" fill="#586C5C"/>
<path fill-rule="evenodd" clip-rule="evenodd" d="M55.7789 63.5936H15.0516C13.3675 63.5936 12 62.1831 12 60.4461V18.4444C12 16.7074 13.3675 15.2969 15.0516 15.2969H55.7789C57.463 15.2969 58.8305 16.7074 58.8305 18.4444V60.4523C58.8305 62.1893 57.463 63.5998 55.7789 63.5998V63.5936ZM15.0516 17.2186C14.4006 17.2186 13.8692 17.7668 13.8692 18.4382V60.4461C13.8692 61.1175 14.4006 61.6657 15.0516 61.6657H55.7789C56.4299 61.6657 56.9614 61.1175 56.9614 60.4461V18.4444C56.9614 17.773 56.4299 17.2248 55.7789 17.2248H15.0516V17.2186Z" fill="#586C5C"/>
<path fill-rule="evenodd" clip-rule="evenodd" d="M49.6711 28.2382H21.1679C20.6543 28.2382 20.2363 27.807 20.2363 27.2773C20.2363 26.7476 20.6543 26.3164 21.1679 26.3164H49.6711C50.1847 26.3164 50.6027 26.7476 50.6027 27.2773C50.6027 27.807 50.1847 28.2382 49.6711 28.2382Z" fill="#586C5C"/>
<path fill-rule="evenodd" clip-rule="evenodd" d="M49.6699 35.2421H26.4218C25.9083 35.2421 25.4902 34.8109 25.4902 34.2812C25.4902 33.7515 25.9083 33.3203 26.4218 33.3203H49.6699C50.1835 33.3203 50.6015 33.7515 50.6015 34.2812C50.6015 34.8109 50.1835 35.2421 49.6699 35.2421Z" fill="#586C5C"/>
<path fill-rule="evenodd" clip-rule="evenodd" d="M35.4212 56.5057C30.8051 56.5057 27.0488 52.6313 27.0488 47.87C27.0488 43.1087 30.8051 39.2344 35.4212 39.2344C40.0374 39.2344 43.7936 43.1087 43.7936 47.87C43.7936 52.6313 40.0374 56.5057 35.4212 56.5057ZM35.4212 41.1623C31.8382 41.1623 28.918 44.1743 28.918 47.87C28.918 51.5657 31.8382 54.5777 35.4212 54.5777C39.0043 54.5777 41.9245 51.5657 41.9245 47.87C41.9245 44.1743 39.0043 41.1623 35.4212 41.1623Z" fill="#586C5C"/>
<path fill-rule="evenodd" clip-rule="evenodd" d="M34.3339 50.6284C34.089 50.6284 33.8501 50.5299 33.671 50.3451L32.3572 48.99C31.9929 48.6143 31.9929 48.0045 32.3572 47.6287C32.7215 47.253 33.3127 47.253 33.677 47.6287L34.3339 48.3063L37.1525 45.399C37.5168 45.0233 38.108 45.0233 38.4723 45.399C38.8366 45.7747 38.8366 46.3845 38.4723 46.7602L34.9967 50.3451C34.8235 50.5237 34.5847 50.6284 34.3339 50.6284Z" fill="#586C5C"/>
</svg>
