<svg width="90" height="64" viewBox="0 0 90 64" fill="none" xmlns="http://www.w3.org/2000/svg">
<path d="M28.2359 43.9297C26.2813 43.9297 24.6953 45.5802 24.6953 47.6014C24.6953 49.6226 26.2869 51.2731 28.2359 51.2731C30.1849 51.2731 31.7765 49.6226 31.7765 47.6014C31.7765 45.5802 30.1849 43.9297 28.2359 43.9297ZM28.2359 49.1767C27.3982 49.1767 26.7169 48.4701 26.7169 47.6014C26.7169 46.7327 27.3982 46.0262 28.2359 46.0262C29.0736 46.0262 29.7549 46.7327 29.7549 47.6014C29.7549 48.4701 29.0736 49.1767 28.2359 49.1767Z" fill="#586C5C"/>
<path d="M61.6363 43.9297C59.6817 43.9297 58.0957 45.5802 58.0957 47.6014C58.0957 49.6226 59.6873 51.2731 61.6363 51.2731C63.5853 51.2731 65.1769 49.6226 65.1769 47.6014C65.1769 45.5802 63.5853 43.9297 61.6363 43.9297ZM61.6363 49.1767C60.7986 49.1767 60.1173 48.4701 60.1173 47.6014C60.1173 46.7327 60.7986 46.0262 61.6363 46.0262C62.474 46.0262 63.1553 46.7327 63.1553 47.6014C63.1553 48.4701 62.474 49.1767 61.6363 49.1767Z" fill="#586C5C"/>
<path d="M28.2354 33.9559H30.2626C30.821 33.9559 31.2734 33.4867 31.2734 32.9076C31.2734 32.3285 30.821 31.8594 30.2626 31.8594H28.2354C27.677 31.8594 27.2246 32.3285 27.2246 32.9076C27.2246 33.4867 27.677 33.9559 28.2354 33.9559Z" fill="#586C5C"/>
<path d="M72.7725 8.76562H38.355C36.1212 8.76562 34.3063 10.6478 34.3063 12.9644V16.1149H25.1979C23.584 16.1149 22.0594 16.7693 20.8922 17.9565C19.7921 19.109 19.1666 20.6263 19.1219 22.2305L17.2679 28.0045L15.1234 29.3423C14.1684 29.9447 13.3866 30.7786 12.8672 31.74C12.32 32.7187 12.0352 33.848 12.0352 35.0063V47.6025C12.0352 49.3399 13.3978 50.753 15.0731 50.753H20.7526C21.9812 53.9151 24.8852 56 28.2359 56C31.5866 56 34.4906 53.9093 35.7192 50.753H54.1593C55.3879 53.9151 58.2918 56 61.6425 56C64.9933 56 67.8972 53.9093 69.1258 50.753H75.8161C76.3745 50.753 76.8269 50.2839 76.8269 49.7048V12.9644C76.8269 10.6478 75.0119 8.76562 72.7781 8.76562H72.7725ZM20.8643 23.4641H29.2467V27.6629H19.5184L20.8699 23.4641H20.8643ZM14.0623 36.0603H17.1003V38.3479L14.0623 38.9792V36.0603ZM34.055 49.4094C33.2843 52.1024 30.9444 53.9093 28.2303 53.9093C25.5162 53.9093 23.1819 52.1024 22.4056 49.4094C22.2381 48.8419 22.1543 48.2338 22.1543 47.6141C22.1543 44.1393 24.8796 41.3131 28.2303 41.3131C31.581 41.3131 34.3063 44.1393 34.3063 47.6141C34.3063 48.2338 34.2225 48.8419 34.055 49.4152V49.4094ZM34.3063 42.0718C32.8208 40.3228 30.654 39.2108 28.2303 39.2108C23.7627 39.2108 20.1327 42.981 20.1327 47.6083C20.1327 47.9616 20.1662 48.3149 20.2053 48.6566H15.0731C14.5147 48.6566 14.0623 48.1875 14.0623 47.6083V41.122L18.3122 40.2417C18.7868 40.1432 19.1275 39.7147 19.1275 39.2108V35.0121C19.1275 34.433 18.6752 33.9639 18.1167 33.9639H14.1908C14.2857 33.5527 14.4309 33.1531 14.6375 32.7824C14.9894 32.1222 15.5255 31.5546 16.1789 31.1435L18.3959 29.7593H30.2631C30.8215 29.7593 31.2739 29.2902 31.2739 28.7111V22.4101C31.2739 21.8309 30.8215 21.3618 30.2631 21.3618H21.2943C21.473 20.6437 21.8137 19.9777 22.3274 19.4391C23.0981 18.6457 24.1201 18.2113 25.1979 18.2113H34.3063V42.066V42.0718ZM53.612 48.6566H36.3335V44.4578H54.1537C53.7628 45.4481 53.5394 46.508 53.5394 47.6083C53.5394 47.9616 53.5729 48.3149 53.612 48.6566ZM67.4616 49.4094C66.691 52.1024 64.351 53.9093 61.637 53.9093C58.9229 53.9093 56.5885 52.1024 55.8123 49.4094C55.6448 48.8419 55.561 48.2338 55.561 47.6141C55.561 46.3111 55.9351 45.0659 56.6555 44.0119C57.7836 42.3208 59.6433 41.3131 61.6314 41.3131C63.6195 41.3131 65.4847 42.3208 66.6072 44.0119V44.0235C67.3276 45.0659 67.7017 46.3111 67.7017 47.6141C67.7017 48.2338 67.618 48.8419 67.4505 49.4152L67.4616 49.4094ZM74.7997 48.6566H69.6675C69.7066 48.3091 69.7401 47.9616 69.7401 47.6083C69.7401 46.508 69.5167 45.4481 69.1258 44.4578H74.7997V48.6566ZM74.7997 42.3555H71.7617V39.205H74.7997V42.3555ZM74.7997 37.1086H70.7509C70.1925 37.1086 69.7401 37.5777 69.7401 38.1568V42.3555H67.9419C66.4173 40.3807 64.1109 39.205 61.6425 39.205C59.1742 39.205 56.8622 40.3807 55.3432 42.3555H36.339V12.9644C36.339 11.8061 37.2493 10.8621 38.3662 10.8621H72.7837C73.9006 10.8621 74.8109 11.8061 74.8109 12.9644V37.1086H74.7997Z" fill="#586C5C"/>
</svg>
